<?xml version="1.0" encoding="UTF-8"?>
<svg xmlns="http://www.w3.org/2000/svg" viewBox="0 0 605.12 428.28">
  <defs>
    <style>
      .cls-1, .cls-2 {
        fill: #243333;
      }

      .cls-3, .cls-4 {
        fill: #fff;
      }

      .cls-5 {
        opacity: .8;
      }

      .cls-5, .cls-6, .cls-7, .cls-8, .cls-9, .cls-2, .cls-10, .cls-11, .cls-12 {
        mix-blend-mode: multiply;
      }

      .cls-5, .cls-10, .cls-11, .cls-13 {
        fill: #fddaba;
      }

      .cls-14, .cls-7 {
        fill: #c38a60;
      }

      .cls-15 {
        fill: #fff0cf;
      }

      .cls-6, .cls-16, .cls-17 {
        fill: none;
      }

      .cls-18 {
        fill: #ffac06;
      }

      .cls-7 {
        opacity: .5;
      }

      .cls-19 {
        fill: #d8aa88;
      }

      .cls-20, .cls-12 {
        fill: #005aab;
      }

      .cls-8, .cls-9, .cls-11, .cls-12 {
        opacity: .3;
      }

      .cls-8, .cls-21 {
        fill: #303439;
      }

      .cls-9, .cls-22 {
        fill: #fdb813;
      }

      .cls-23 {
        fill: #899c00;
      }

      .cls-24 {
        fill: #ee1b24;
      }

      .cls-25 {
        fill: #ed1b24;
      }

      .cls-16 {
        isolation: isolate;
      }

      .cls-26 {
        fill: #777f08;
      }

      .cls-17 {
        stroke: #005aab;
        stroke-miterlimit: 10;
      }

      .cls-27 {
        fill: #e5e5e5;
      }

      .cls-4 {
        opacity: .33;
      }

      .cls-28 {
        fill: #fff6e3;
      }

      .cls-29 {
        fill: #0072bb;
      }

      .cls-30 {
        fill: #7f4822;
      }
    </style>
  </defs>
  <g class="cls-16">
    <g id="OBJECTS">
      <g>
        <g>
          <ellipse class="cls-27" cx="302.56" cy="409.71" rx="302.56" ry="18.56"/>
          <g>
            <path class="cls-13" d="m70.83,297.03l-12.92-1.86v84.58c0,17.86,12.18,32.33,27.21,32.33h62.33c15.03,0,27.21-14.48,27.21-32.33l-.76-84.48s-103.05-.03-103.05,1.76Z"/>
            <ellipse class="cls-30" cx="115.95" cy="294.75" rx="58.04" ry="9.35"/>
            <path class="cls-19" d="m172.08,297.13c1.24-.76,1.9-1.56,1.9-2.38,0-5.17-25.98-9.35-58.04-9.35s-58.04,4.19-58.04,9.35c0,.82.66,1.62,1.9,2.38,6.53-4.01,29.18-6.98,56.14-6.98s49.61,2.96,56.14,6.98Z"/>
            <g>
              <path class="cls-23" d="m132.82,183.14l4.08-7.47s23.56-16.15,38.77-27.94c15.22-11.79,28.31-15.74,40.95-23.25s20.25-21.33,20.25-21.33c0,0-68.96,39.4-70.02,40.68-1.07,1.28-30.72,25.51-31.09,26.26-.38.75-2.94,13.05-2.94,13.05Z"/>
              <path class="cls-23" d="m102.66,133.61s-17.05-51.98-19.52-65.3c-2.47-13.33-9.68-35.29-10.14-35.91-.46-.63,1.53-.85,10.21,13.41,8.67,14.26,24.72,46.42,27.01,58.71,5.44,29.24,2.93,56.62,2.93,56.62l-10.49-27.53Z"/>
              <path class="cls-23" d="m201.04,155.61s-5.1-10.82-23.26-10.05c-18.16.77-42.4,25.27-47.41,37.17-5.01,11.89-3.76,34.31-3.76,34.31,0,0,43.35-27.34,43.88-27.89.53-.54,30.56-33.55,30.56-33.55Z"/>
              <polygon class="cls-26" points="117.55 158.39 126.02 136.69 130.64 138.39 118.68 161.36 117.55 158.39"/>
              <path class="cls-26" d="m127.29,133.93s10-50.01,26.31-71.49c16.31-21.48,28.64-34.5,33.27-34.88,4.63-.38-2.67,43.41-18.58,61.01-15.91,17.6-41,45.36-41,45.36Z"/>
              <path class="cls-26" d="m136.9,175.67s-3.64-31.83,8.37-47.61c12.01-15.79,31.63-24.25,45.78-29.48,14.15-5.23,35.85-4.51,45.83,4.57l-74.81,48.87s-22.36,15.47-25.17,23.64Z"/>
              <path class="cls-23" d="m87.64,134.26c-1.46-1.3-18.32-25.21-27.26-31.6-8.94-6.39-14.25,6.72-14.25,6.72l41.5,24.88Z"/>
              <path class="cls-26" d="m87.15,179.62s9.76,3.72,15.8,12.6c6.04,8.88,9.14,15.54,9.74,20.03l.34-10.8s-10.2-19.81-21.01-20.75l-4.87-1.08Z"/>
              <path class="cls-26" d="m90.57,216.71s18.72,19.95,21.09,24.8c2.47,5.08,3.25.67,3.25.67l-.04-4.7s-16.32-18.38-20.77-20.99l-3.53.21Z"/>
              <path class="cls-23" d="m6.26,156.14s9.57-7.39,22.07-8.91c12.5-1.52,31.58-1.17,41.98,2.87,10.4,4.04,23.51,14.05,24.65,23.93,1.15,9.89-.16,7.95-.16,7.95l-51.56-20.14-36.98-5.7Z"/>
              <path class="cls-26" d="m19.08,167.17s16.82-3.89,38.27,4.24c21.46,8.13,35.74,27.51,38.17,41.55l-47.13-31.5-29.31-14.29Z"/>
              <path class="cls-23" d="m9.07,169.3s12.98-7.61,31.28-1.58c18.29,6.03,33.66,13.24,44.32,25.51,10.66,12.28,13.54,27.92,14.21,29.55,0,0-22.35-14.99-41.38-28.65-19.03-13.66-46.17-25.68-48.42-24.83Z"/>
              <path class="cls-26" d="m2.4,159.98s.79-3.98,2.76-5.63c1.97-1.66,9.15-4.16,27.2-1.42,18.05,2.75,24.87,4.38,36.26,11.9,11.39,7.52,22.15,16.54,26.17,17.15,0,0-19.86-5.51-31.48-9.39-11.62-3.88-41.91-9.39-48.25-11.64-6.34-2.25-11.28-2.29-12.68-.97Z"/>
              <path class="cls-26" d="m102.51,169.09s-49.25-54.13-51.44-56.01c-2.19-1.89-4.18-3.49-4.18-3.49,0,0,17.86,2.34,32.86,10.17,15,7.83,30.75,19.38,34.13,30.5,3.38,11.12-1.97,16.01-4.56,16.96-2.58.95-6.81,1.89-6.81,1.89Z"/>
              <path class="cls-23" d="m125.69,144.29s-13.15-17.28-11.85-33.65c1.3-16.37,20.39-37.39,33.45-40.15,13.06-2.77,20.69.36,20.69.36,0,0,9.89-2.56,11.57,2.8,1.69,5.36-2.32,28.59-16.77,45.65-14.44,17.06-30,26.81-37.1,24.99Z"/>
              <path class="cls-26" d="m130.66,231.49s-12.9-17.76,4.05-41.72c16.96-23.97,31.56-39.13,48.15-41.21,16.6-2.08,19.06,5.96,29.23,1.37,0,0-21.39,21.04-36.61,35.56-15.22,14.53-44.83,46-44.83,46Z"/>
              <path class="cls-26" d="m92.36,157.37l8.65,9.23,11.93,27.26s2.6-4.86,1.8-6.11-16.77-32.51-16.77-32.51l-5.62,2.12Z"/>
              <path class="cls-26" d="m115.74,223.34s.14-.28.41-.78c2.23-4.17,13.06-23.8,19.5-24.76l-.84,6.58s-9.65,3.34-17.33,26.41l-1.74-7.46Z"/>
              <path class="cls-26" d="m118.32,249.27s9.83-18.85,15.71-25.12l.88,3.6s-12.96,16.09-17.01,28.4l-.15-4.71-.28-2.63"/>
              <path class="cls-26" d="m112.68,294.95h6.83s0-.03,0-.04c-.5-5.33-.73-4.17-.67-10.43.06-6.26.44-4.46-.37-10.01-.81-5.55.5-28.66.07-37.7-.43-9.04-1.27-20.33-.49-27.7.78-7.37,12.17-21.06,12.17-21.06l-10.09-7.34-10.3,4.19s2.81,39.97,3.13,64.07c.2,15.05-.05,31.19-.28,46.02Z"/>
              <path class="cls-23" d="m117.28,205.47s-2.55-3.09-6.25-12.68c-3.69-9.58-3.87-22.65-4.35-27.39-.48-4.74,2.39-13.88,11.77-11.11,9.38,2.77,18.8,10.25,19.88,12.3,1.08,2.05,9.06-4.56,18.15,1.19,9.09,5.75,7.5,15.4-1.92,18.75-9.43,3.35-19.71,13.42-25.45,15.66-5.74,2.24-9.93.83-9.93.83l-1.91,2.44Z"/>
            </g>
            <path class="cls-11" d="m169.14,298.39v65.11c0,17.86-12.18,32.33-27.21,32.33h-62.33c-9.27,0-17.46-5.53-22.37-13.95.89,16.9,12.67,30.3,27.12,30.3h62.33c15.03,0,27.73-13.65,27.97-32.44l-.76-84.48s-1.04,2.08-4.75,3.12Z"/>
          </g>
          <g>
            <path class="cls-15" d="m387.9,73.63l44.06,326.45c.64,4.74,4.4,7.96,8.4,7.2l44.6-8.5c4-.76,6.72-5.22,6.08-9.96l-44.58-330.32-3.25,1.98c-17.21,10.45-36.88,13.73-55.84,9.29l.52,3.87Z"/>
            <path class="cls-25" d="m445.97,54.79l45.08,334.02c.64,4.73-2.09,9.2-6.08,9.96l-44.6,8.5c-3.99.76-7.76-2.47-8.4-7.2l-45.08-334.02-6.41,1.22,45.08,334.02c1.2,8.92,8.31,15.01,15.83,13.57l44.6-8.5c7.53-1.43,12.67-9.86,11.47-18.78l-45.08-334.02-6.41,1.22Z"/>
            <path class="cls-1" d="m484.18,392.97l-44.6,8.5c-4,.76-7.76-2.46-8.4-7.2l.78,5.81c.64,4.74,4.4,7.96,8.4,7.2l44.6-8.5c4-.76,6.72-5.22,6.08-9.96l-.78-5.81c.64,4.74-2.08,9.2-6.08,9.96Z"/>
            <g>
              <g class="cls-6">
                <path class="cls-13" d="m440.74,392.8c-13.88-98.26-28.77-208.59-41.44-307.02,13.88,98.26,28.77,208.59,41.44,307.02h0Z"/>
              </g>
              <g class="cls-6">
                <path class="cls-13" d="m449.93,386.39c-13.88-98.26-28.77-208.59-41.44-307.02,13.88,98.26,28.77,208.59,41.44,307.02h0Z"/>
              </g>
              <g class="cls-6">
                <path class="cls-13" d="m459.9,392.25c-13.11-92.55-27.14-196.46-39.03-289.17,13.11,92.55,27.13,196.46,39.03,289.17h0Z"/>
              </g>
              <g class="cls-6">
                <path class="cls-13" d="m481,386.68c-13.11-92.55-27.14-196.46-39.03-289.17,13.11,92.55,27.13,196.46,39.03,289.17h0Z"/>
              </g>
              <g class="cls-6">
                <path class="cls-13" d="m467.91,367.42c-13.11-92.55-27.14-196.46-39.03-289.17,13.11,92.55,27.13,196.46,39.03,289.17h0Z"/>
              </g>
            </g>
            <path class="cls-5" d="m438.53,401.57c-1.54-1.3-2.66-3.31-2.98-5.7l-43.9-325.26c-1.43-.25-2.85-.52-4.27-.85l.52,3.87,43.28,320.64c.58,4.32,3.76,7.37,7.35,7.3Z"/>
            <path class="cls-2" d="m488.55,394.57l-44.6,8.5c-1.98.38-3.9-.23-5.42-1.5-3.59.07-6.77-2.98-7.35-7.3l.78,5.81c.64,4.74,4.4,7.96,8.4,7.2l44.6-8.5c.29-.05.56-.13.83-.22.08-.03.17-.06.25-.09.19-.07.37-.15.55-.24.09-.04.17-.09.26-.13.18-.1.35-.2.52-.31.07-.05.15-.09.22-.14.23-.16.45-.34.66-.53,0,0,0,0,0,0,.22-.2.42-.41.62-.64.05-.06.09-.11.14-.17.15-.17.28-.36.42-.54.05-.07.1-.15.15-.22.13-.19.24-.39.35-.59.04-.07.08-.14.11-.21.14-.27.27-.55.39-.84-.59.32-1.22.56-1.89.69Z"/>
          </g>
          <g>
            <path class="cls-15" d="m461.76,74.62l44.06,326.45c.64,4.74,4.4,7.97,8.4,7.2l44.6-8.5c4-.76,6.72-5.22,6.08-9.96l-44.58-330.32-3.25,1.98c-17.21,10.45-36.88,13.73-55.84,9.29l.52,3.87Z"/>
            <path class="cls-22" d="m519.83,55.78l45.08,334.02c.64,4.73-2.09,9.2-6.08,9.96l-44.6,8.5c-3.99.76-7.76-2.47-8.4-7.2l-45.08-334.02-6.41,1.22,45.08,334.02c1.2,8.92,8.31,15.01,15.83,13.57l44.6-8.5c7.53-1.43,12.67-9.86,11.47-18.78l-45.08-334.02-6.41,1.22Z"/>
            <path class="cls-1" d="m558.04,393.97l-44.6,8.5c-4,.76-7.76-2.46-8.4-7.2l.78,5.81c.64,4.74,4.4,7.97,8.4,7.2l44.6-8.5c4-.76,6.72-5.22,6.08-9.96l-.78-5.81c.64,4.74-2.08,9.2-6.08,9.96Z"/>
            <g>
              <g class="cls-6">
                <path class="cls-13" d="m514.6,393.8c-13.88-98.26-28.77-208.59-41.44-307.02,13.88,98.26,28.77,208.59,41.44,307.02h0Z"/>
              </g>
              <g class="cls-6">
                <path class="cls-13" d="m523.79,387.38c-13.88-98.26-28.77-208.59-41.44-307.02,13.88,98.26,28.77,208.59,41.44,307.02h0Z"/>
              </g>
              <g class="cls-6">
                <path class="cls-13" d="m533.76,393.25c-13.11-92.55-27.14-196.46-39.03-289.17,13.11,92.55,27.13,196.46,39.03,289.17h0Z"/>
              </g>
              <g class="cls-6">
                <path class="cls-13" d="m554.86,387.68c-13.11-92.55-27.14-196.46-39.03-289.17,13.11,92.55,27.13,196.46,39.03,289.17h0Z"/>
              </g>
              <g class="cls-6">
                <path class="cls-13" d="m541.77,368.42c-13.11-92.55-27.14-196.46-39.03-289.17,13.11,92.55,27.13,196.46,39.03,289.17h0Z"/>
              </g>
            </g>
            <path class="cls-5" d="m512.39,402.57c-1.54-1.3-2.66-3.31-2.98-5.7l-43.9-325.26c-1.43-.25-2.85-.52-4.27-.85l.52,3.87,43.28,320.64c.58,4.32,3.76,7.37,7.35,7.3Z"/>
            <path class="cls-2" d="m562.41,395.57l-44.6,8.5c-1.98.38-3.9-.23-5.42-1.5-3.59.07-6.77-2.98-7.35-7.3l.78,5.81c.64,4.74,4.4,7.97,8.4,7.2l44.6-8.5c.29-.05.56-.13.83-.22.08-.03.17-.06.25-.09.19-.07.37-.15.55-.24.09-.04.17-.09.26-.13.18-.1.35-.2.52-.31.07-.05.15-.09.22-.14.23-.16.45-.34.66-.53,0,0,0,0,0,0,.22-.2.42-.41.62-.64.05-.05.09-.11.14-.17.15-.17.28-.36.42-.54.05-.07.1-.15.15-.22.13-.19.24-.39.35-.59.04-.07.08-.14.11-.21.14-.27.27-.55.39-.84-.59.32-1.22.56-1.89.69Z"/>
          </g>
          <g>
            <path class="cls-15" d="m256.5,370.82V104.1c-26.53,16.3-50.41,1.9-50.41,1.9v262.93s23.89-14.41,50.41,1.9Z"/>
            <rect class="cls-25" x="252.13" y="98.31" width="8.74" height="278.3"/>
            <rect class="cls-25" x="200.58" y="98.31" width="8.74" height="278.3"/>
            <polygon class="cls-13" points="244.13 109.73 244.13 198 241.85 110.37 244.13 109.73"/>
            <path class="cls-13" d="m234.46,159.58c1,6.62,2.82,169.91,1.07,192.61,0,0-1.74-126.38-1.07-192.61Z"/>
            <path class="cls-13" d="m217.94,205.91c.92,5.14,2.57,131.72.97,149.33,0,0-1.59-97.98-.97-149.33Z"/>
            <path class="cls-13" d="m227.83,111.81c1,4.6,2.82,117.61,1.07,133.34,0,0-1.74-87.49-1.07-133.34Z"/>
          </g>
          <g>
            <rect class="cls-22" x="123.68" y="167.09" width="344.93" height="72.16" rx="2.73" ry="2.73" transform="translate(92.97 499.31) rotate(-90)"/>
            <rect class="cls-4" x="266.75" y="30.71" width="13.34" height="344.93"/>
            <rect class="cls-15" x="290.83" y="326.38" width="10.63" height="72.16" transform="translate(-66.32 658.61) rotate(-90)"/>
            <rect class="cls-15" x="290.83" y="21.95" width="10.63" height="72.16" transform="translate(238.11 354.18) rotate(-90)"/>
            <rect class="cls-15" x="290.83" y="304.94" width="10.63" height="72.16" transform="translate(-44.88 637.16) rotate(-90)"/>
            <rect class="cls-15" x="271.79" y="122.43" width="48.71" height="54.88" transform="translate(146.28 446.01) rotate(-90)"/>
            <path class="cls-9" d="m328.11,30.71c2.27,0,4.11,1.75,4.11,3.91v337.1c0,2.16-1.84,3.91-4.11,3.91h-29.02l.08-344.93h28.94Z"/>
          </g>
          <g>
            <rect class="cls-20" x="184.95" y="179.86" width="344.93" height="46.61" rx="2.73" ry="2.73" transform="translate(154.25 560.59) rotate(-90)"/>
            <rect class="cls-29" x="352.1" y="339.15" width="10.63" height="46.61" transform="translate(-5.04 719.88) rotate(-90)"/>
            <rect class="cls-29" x="352.1" y="44.24" width="10.63" height="46.61" transform="translate(289.87 424.96) rotate(-90)"/>
            <rect class="cls-29" x="352.1" y="62.67" width="10.63" height="46.61" transform="translate(271.44 443.4) rotate(-90)"/>
            <rect class="cls-29" x="352.1" y="317.71" width="10.63" height="46.61" transform="translate(16.4 698.44) rotate(-90)"/>
            <path class="cls-29" d="m372.04,137.8c-5.71,0-10.34-5.5-10.34-12.29,0,0,0,0,0,0h-8.61s0,0,0,0c0,6.78-4.63,12.29-10.34,12.29v163.49c5.71,0,10.34,5.5,10.34,12.29,0,.67-.06,1.31-.14,1.95h8.9c-.09-.64-.14-1.29-.14-1.95,0-6.79,4.63-12.29,10.34-12.29.02,0,.03,0,.04,0v-163.49s-.03,0-.04,0Z"/>
            <path class="cls-12" d="m376.61,30.71h-12.87v344.93h12.87c2.27,0,4.11-1.75,4.11-3.91V34.62c0-2.16-1.84-3.91-4.11-3.91Z"/>
            <rect class="cls-4" x="340.71" y="30.71" width="8.49" height="344.93"/>
          </g>
          <g>
            <g>
              <path class="cls-15" d="m83.79,381.05l-2.02-7.55,35.24-27.81s21.95-3.09,45.64-16.48c23.69-13.39,45.93-34.67,74.82-33.64,28.89,1.03,56.91,19.91,66.15,55.62l-.87,17.51s-126.82-1.72-129.7-1.37c-2.89.34-75.11,8.58-75.11,8.58l-14.15,5.15Z"/>
              <path class="cls-28" d="m302.91,369.83s2.46-25.35-1.88-46.29c-4.33-20.94-21.52-36.91-41.16-47.38-19.64-10.47-77.85-44.97-90.27-82.91l-58.35,66.95s13,30.9,52,35.19c39,4.29,71.74,7.66,90.32,20.03,19.96,13.28,43.68,60.18,43.68,60.18l5.67-5.77Z"/>
              <path class="cls-13" d="m81.77,373.5s25.42,4.46,60.66-11.67c35.24-16.14,60.09-38.11,95.33-31.93,35.24,6.18,64.67,40.09,64.67,40.09,0,0-10.65,10.71-14.41,15.18-3.76,4.46-10.11,7.9-10.11,7.9l-4.91.34s-10.69-8.58-26.87-5.84c-16.18,2.75-26,9.27-40.44,12.02-14.44,2.75-134.04,7.9-134.04,7.9l10.11-33.99Z"/>
              <path class="cls-10" d="m195,391.29s24.96-11.69,40.8-17.4c15.84-5.7,30.24-3.14,42.24,7.99,0,0,.48-.48-12.08-4.28-12.56-3.8-16.24-1.52-20.8-1.52s-32.32,9.32-38.16,11.79c-5.84,2.47-18.08,6.37-18.72,6.56-.64.19,6.72-3.14,6.72-3.14Z"/>
              <path class="cls-10" d="m87.85,385.3s29.4-.71,51.24-8.7c21.84-7.99,46.2-25.95,64.92-28.38,18.72-2.42,22.56-.71,22.56-.71,0,0-18,2-25.44,3.71-7.44,1.71-28.92,15.26-37.8,19.82-8.88,4.56-9.24,2.99-19.8,7.42-10.56,4.42-24.96,7.42-34.32,7.84-9.36.43-21.36-1-21.36-1Z"/>
              <path class="cls-15" d="m521.96,381.05l2.02-7.55-35.24-27.81s-21.95-3.09-45.64-16.48c-23.69-13.39-45.93-34.67-74.82-33.64-28.89,1.03-56.91,19.91-66.15,55.62l.87,17.51s126.82-1.72,129.7-1.37c2.89.34,75.11,8.58,75.11,8.58l14.15,5.15Z"/>
              <path class="cls-28" d="m302.85,369.83s-2.46-25.35,1.88-46.29c4.33-20.94,21.52-36.91,41.16-47.38,19.64-10.47,77.85-44.97,90.27-82.91l58.35,66.95s-13,30.9-52,35.19c-39,4.29-71.74,7.66-90.32,20.03-19.96,13.28-43.68,60.18-43.68,60.18l-5.67-5.77Z"/>
              <path class="cls-13" d="m523.98,373.5s-25.42,4.46-60.66-11.67c-35.24-16.14-60.09-38.11-95.33-31.93-35.24,6.18-65.55,40.09-65.55,40.09,0,0,11.53,10.71,15.29,15.18,3.76,4.46,10.11,7.9,10.11,7.9l4.91.34s10.69-8.58,26.87-5.84c16.18,2.75,26,9.27,40.44,12.02,14.44,2.75,134.04,7.9,134.04,7.9l-10.11-33.99Z"/>
              <path class="cls-10" d="m410.75,391.29s-24.96-11.69-40.8-17.4c-15.84-5.7-30.24-3.14-42.24,7.99,0,0-.48-.48,12.08-4.28,12.56-3.8,16.24-1.52,20.8-1.52s32.32,9.32,38.16,11.79c5.84,2.47,18.08,6.37,18.72,6.56s-6.72-3.14-6.72-3.14Z"/>
              <path class="cls-10" d="m517.91,385.3s-29.4-.71-51.24-8.7c-21.84-7.99-46.2-25.95-64.92-28.38-18.72-2.42-22.56-.71-22.56-.71,0,0,18,2,25.44,3.71,7.44,1.71,28.92,15.26,37.8,19.82,8.88,4.56,9.24,2.99,19.8,7.42,10.56,4.42,24.96,7.42,34.32,7.84,9.36.43,21.36-1,21.36-1Z"/>
              <path class="cls-2" d="m278.21,396.84s3.76-.51,11.56-9.1c7.8-8.58,9.97-12.19,13.29-12.53,3.32-.34,18.49,21.97,27.73,21.46l1.73-1.37s-12.28-11.67-18.2-17.85c-5.92-6.18-8.52-7.61-11.41-7.61s-7.9,5.44-11.27,8.64c-3.37,3.2-11.07,14.53-18.97,15.79l5.54,2.57Z"/>
              <path class="cls-24" d="m539.58,404.91l-210.78-11.84c-8.86,11.16-23.3,10.62-25.31,10.49v-.02s-.07,0-.13,0c-.06,0-.13,0-.13,0v.02c-2.01.13-16.46.67-25.31-10.49l-210.78,11.84-.53,9.03,206.98-10.93s14.08,11.77,29.77,10.99c15.69.79,29.77-10.99,29.77-10.99l206.98,10.93-.53-9.03Z"/>
            </g>
            <path class="cls-24" d="m229.04,347.52l.94,43.22,9.74-12.55,7.04,11.43.47-40.02s-10.21-3.63-18.18-2.09Z"/>
          </g>
          <g>
            <path class="cls-14" d="m429.82,413.67h-50.23c-1.83,0-3.34-1.71-3.42-3.88l-5.05-125.95h69.19l-7.07,126.03c-.12,2.14-1.62,3.8-3.42,3.8Z"/>
            <polygon class="cls-3" points="373.15 334.53 374.91 378.43 435 378.43 437.46 334.53 373.15 334.53"/>
            <polygon class="cls-7" points="438.89 308.88 440.31 283.84 371.12 283.84 372.13 308.88 438.89 308.88"/>
            <path class="cls-7" d="m428.79,283.84l-7.07,126.03c-.12,2.14-1.62,3.8-3.42,3.8h11.52c1.8,0,3.3-1.66,3.42-3.8l7.07-126.03h-11.52Z"/>
            <polygon class="cls-4" points="386.05 283.84 380.78 284.06 384.7 413.67 393.3 413.67 389.36 283.84 386.05 283.84"/>
            <g>
              <path class="cls-21" d="m428.42,286.93h-45.72c-2.81,0-4.96-2.98-4.54-6.28l1.46-11.35c.34-2.66,2.27-4.63,4.54-4.63h42.27c2.17,0,4.05,1.81,4.49,4.34l1.99,11.35c.59,3.39-1.58,6.57-4.49,6.57Z"/>
              <path class="cls-8" d="m382.7,286.93h45.72c2.91,0,5.09-3.18,4.49-6.57l-.82-4.67h-53.29l-.64,4.95c-.42,3.3,1.73,6.28,4.54,6.28Z"/>
              <path class="cls-21" d="m440.44,301.15h-69.66c-1.88,0-3.31-1.99-3.03-4.19l1.93-14.97c.23-1.78,1.52-3.09,3.03-3.09h65.11c1.45,0,2.7,1.21,3,2.9l2.63,14.97c.4,2.26-1.06,4.38-3,4.38Z"/>
            </g>
          </g>
          <path class="cls-18" d="m404.97,29.1l-9.94-11.81c-1.06-1.26-1.06-3.29,0-4.54l9.94-11.81c1.06-1.26,2.77-1.26,3.82,0l9.94,11.81c1.06,1.26,1.06,3.29,0,4.54l-9.94,11.81c-1.06,1.25-2.77,1.25-3.82,0Z"/>
          <path class="cls-18" d="m34.46,362.49l-3.68-4.38c-1.06-1.26-1.06-3.29,0-4.54l3.68-4.38c1.06-1.26,2.77-1.26,3.82,0l3.68,4.38c1.06,1.25,1.06,3.29,0,4.54l-3.68,4.38c-1.06,1.26-2.77,1.26-3.82,0Z"/>
          <path class="cls-18" d="m97.67,262.98h0c-1.06-1.25-1.06-3.29,0-4.54h0c1.06-1.25,2.77-1.25,3.82,0h0c1.06,1.26,1.06,3.29,0,4.54h0c-1.06,1.26-2.77,1.26-3.82,0Z"/>
          <path class="cls-18" d="m575.74,328.43l-2.9-3.44c-1.06-1.26-1.06-3.29,0-4.54l2.9-3.45c1.06-1.26,2.77-1.26,3.82,0l2.9,3.45c1.06,1.25,1.06,3.29,0,4.54l-2.9,3.44c-1.06,1.26-2.77,1.26-3.82,0Z"/>
        </g>
        <path class="cls-17" d="m51.97,257.42c2.28-1.11,2.67-5.39,5.62-5.39,3.4,0,3.4,5.65,6.8,5.65s3.4-5.65,6.8-5.65"/>
      </g>
    </g>
  </g>
</svg>